<?xml version="1.0" encoding="utf-8"?>
<!-- Generator: Adobe Illustrator 16.0.0, SVG Export Plug-In . SVG Version: 6.00 Build 0)  -->
<!DOCTYPE svg PUBLIC "-//W3C//DTD SVG 1.1//EN" "http://www.w3.org/Graphics/SVG/1.1/DTD/svg11.dtd">
<svg version="1.1" id="Calque_1" xmlns="http://www.w3.org/2000/svg" xmlns:xlink="http://www.w3.org/1999/xlink" x="0px" y="0px"
	 width="162.188px" height="162.193px" viewBox="0 0 162.188 162.193" enable-background="new 0 0 162.188 162.193"
	 xml:space="preserve">
<g>
	<path fill="#FFFFFF" d="M157.585,0H4.615C2.067,0,0,1.827,0,4.063v154.062c0,2.248,2.067,4.068,4.615,4.068h152.97
		c2.549,0,4.603-1.82,4.603-4.068V4.063C162.188,1.827,160.134,0,157.585,0z M122.172,81.097v54.758H94.786V94.787H67.407v41.069
		H40.028V81.097H26.339l54.758-54.758l54.752,54.758H122.172z"/>
	<polygon fill="#010101" points="26.339,81.097 40.028,81.097 40.028,135.855 67.407,135.855 67.407,94.787 94.786,94.787 
		94.786,135.855 122.172,135.855 122.172,81.097 135.849,81.097 81.097,26.339 	"/>
</g>
</svg>
