<?xml version="1.0" encoding="utf-8"?>
<!-- Generator: Adobe Illustrator 16.0.0, SVG Export Plug-In . SVG Version: 6.00 Build 0)  -->
<!DOCTYPE svg PUBLIC "-//W3C//DTD SVG 1.1//EN" "http://www.w3.org/Graphics/SVG/1.1/DTD/svg11.dtd">
<svg version="1.1" id="Calque_1" xmlns="http://www.w3.org/2000/svg" xmlns:xlink="http://www.w3.org/1999/xlink" x="0px" y="0px"
	 width="140.81px" height="182.021px" viewBox="0 0 140.81 182.021" enable-background="new 0 0 140.81 182.021"
	 xml:space="preserve">
<g>
	<polygon fill="#566181" points="140.81,48.085 92.729,0 0,0 0,182.021 140.81,182.021 	"/>
	<polygon fill="#3E4552" points="92.729,0 92.729,48.085 140.81,48.085 	"/>
</g>
<rect y="126.427" fill="#3492D0" width="140.81" height="55.594"/>
<text transform="matrix(1 0 0 1 8.334 165.8096)" fill="#566181" font-family="'MyriadPro-Regular'" font-size="34.4649">README</text>
<g>
	<path fill="#3492D0" d="M77.579,109.753c-0.975-0.885-1.63-1.991-1.969-3.32c-0.339-1.328-0.508-3.426-0.508-6.293l-0.063-4.808
		v-36.56l-18.281,2.285v1.333c1.904,0.127,3.363,0.453,4.379,0.979c1.016,0.525,1.883,1.379,2.604,2.557
		c0.719,1.096,1.184,2.516,1.396,4.264c0.211,1.748,0.316,4.789,0.316,9.125v15.6c0,3.706-0.095,6.537-0.285,8.495
		s-0.519,3.421-0.984,4.389c-0.677,1.475-1.565,2.517-2.666,3.128c-1.101,0.61-2.92,1.084-5.459,1.42v1.333h28.057v-1.333
		C80.942,111.757,78.763,110.892,77.579,109.753z"/>
	<path fill="#3492D0" d="M69.993,48.984c1.659,0,3.032-0.529,4.117-1.587c1.085-1.057,1.627-2.39,1.627-3.999
		c0-1.565-0.553-2.888-1.658-3.967c-1.107-1.079-2.469-1.619-4.086-1.619s-2.979,0.54-4.086,1.619s-1.658,2.402-1.658,3.967
		c0,1.609,0.542,2.942,1.627,3.999C66.961,48.456,68.333,48.984,69.993,48.984z"/>
</g>
</svg>
